<?xml version="1.0" encoding="utf-8"?>
<svg viewBox="0 0 960 540" xmlns="http://www.w3.org/2000/svg">
  <g style="opacity: 0.5;">
    <rect width="960" height="540" fill="#231832" style=""/>
    <path d="M 684 540 L 624 540 L 624 480 L 670 480 L 670 420 L 612 420 L 612 360 L 684 360 L 684 300 L 529 300 L 529 240 L 602 240 L 602 180 L 547 180 L 547 120 L 674 120 L 674 60 L 530 60 L 530 0 L 960 0 L 960 60 L 960 120 L 960 180 L 960 240 L 960 300 L 960 360 L 960 420 L 960 480 L 960 540 L 684 540 Z" fill="#e5e4ce" style=""/>
    <path d="M 794 540 L 707 540 L 707 480 L 685 480 L 685 420 L 694 420 L 694 360 L 701 360 L 701 300 L 648 300 L 648 240 L 689 240 L 689 180 L 689 120 L 685 120 L 685 60 L 676 60 L 676 0 L 960 0 L 960 60 L 960 120 L 960 180 L 960 240 L 960 300 L 960 360 L 960 420 L 960 480 L 960 540 L 794 540 Z" fill="#e7a268" style=""/>
    <path d="M 833 540 L 820 540 L 820 480 L 890 480 L 890 420 L 766 420 L 766 360 L 798 360 L 798 300 L 799 300 L 799 240 L 891 240 L 891 180 L 759 180 L 759 120 L 792 120 L 792 60 L 849 60 L 849 0 L 960 0 L 960 60 L 960 120 L 960 180 L 960 240 L 960 300 L 960 360 L 960 420 L 960 480 L 960 540 L 833 540 Z" fill="#f43157" style=""/>
  </g>
</svg>