<?xml version="1.0" encoding="UTF-8" standalone="no"?>
<!-- Created with Inkscape (http://www.inkscape.org/) -->

<svg
   width="512"
   height="512"
   viewBox="0 0 512 512"
   version="1.1"
   id="svg5"
   inkscape:export-filename="logo.svg"
   inkscape:export-xdpi="96"
   inkscape:export-ydpi="96"
   xmlns:inkscape="http://www.inkscape.org/namespaces/inkscape"
   xmlns:sodipodi="http://sodipodi.sourceforge.net/DTD/sodipodi-0.dtd"
   xmlns="http://www.w3.org/2000/svg"
   xmlns:svg="http://www.w3.org/2000/svg">
  <sodipodi:namedview
     id="namedview7"
     pagecolor="#ffffff"
     bordercolor="#000000"
     borderopacity="0.25"
     inkscape:showpageshadow="2"
     inkscape:pageopacity="0.0"
     inkscape:pagecheckerboard="false"
     inkscape:deskcolor="#d1d1d1"
     inkscape:document-units="px"
     showgrid="false" />
  <defs
     id="defs2" />
  <g
     inkscape:label="Katman 1"
     inkscape:groupmode="layer"
     id="layer1">
    <g
       aria-label="Murat Koptur"
       id="text113"
       style="font-size:200px;line-height:0">
      <path
         d="m 152.92383,174.26172 q 6.73828,1.66015 6.73828,4.98047 -9.47266,15.72265 -9.47266,44.33593 h 0.58594 q -0.58594,0.97657 -0.58594,1.5625 0,7.03125 -2.24609,27.14844 h 0.58594 q 19.14062,-31.05469 43.0664,-60.35156 l 16.11328,-16.60156 h 0.58594 q 0.97656,0 6.05469,2.24609 0,1.46484 -11.03516,26.5625 -13.28125,39.64844 -13.28125,54.19922 -0.78125,6.05469 -1.66015,6.05469 l 0.48828,3.90625 q 0,3.22265 -1.07422,11.03515 h 0.58594 l -0.58594,1.07422 V 281 q 0,1.85547 0.58594,2.83203 -1.66016,7.42188 -2.2461,13.28125 h -1.07422 q -1.17187,0 -2.24609,-19.92187 0,-39.0625 18.84766,-86.32813 h -1.17188 q -23.92578,26.17188 -49.70703,69.72656 l -5.56641,12.10938 q -1.85546,1.07422 -3.32031,1.07422 h -1.07422 q -3.02734,0 -3.90625,-2.14844 v -1.07422 q 2.73438,-7.8125 6.15235,-32.12891 l -0.58594,-1.07421 1.07422,-2.73438 q 0,-1.17187 -0.48828,-1.17187 l 1.07422,-16.01563 h -0.58594 l 0.58594,-1.07422 V 209.125 l 0.48828,-3.90625 h -0.48828 q -26.26954,41.40625 -38.76954,65.33203 l -29.882808,68.55469 q -0.683594,2.24609 -4.980469,2.24609 h -0.585937 q -3.808594,-1.36719 -3.808594,-5.5664 v -1.17188 q 5.273437,0 15.527344,-26.46484 26.367184,-59.47266 44.824214,-84.08203 0,-1.36719 8.78907,-16.01563 7.42187,-19.04297 17.67578,-33.78906 z"
         style="font-family:'Arty Signature';-inkscape-font-specification:'Arty Signature'"
         id="path1880" />
      <path
         d="m 203.99805,239.20312 q 1.17187,0 2.34375,2.34375 0,0.97657 -0.78125,5.07813 h 0.39062 q 1.46485,0 5.07813,-6.25 0.68359,-0.39063 1.5625,-0.39063 h 0.39062 q 1.95313,0.78125 1.95313,2.73438 V 243.5 q -8.20313,10.54687 -10.9375,10.54687 -3.51563,-1.95312 -3.51563,-4.6875 v -1.5625 q 0,-1.95312 0.78125,-4.6875 l -0.39062,-2.34375 q 2.24609,-1.5625 3.125,-1.5625 z"
         style="font-family:'Arty Signature';-inkscape-font-specification:'Arty Signature'"
         id="path1882" />
      <path
         d="m 230.46289,237.93359 q 1.5625,0 2.73438,1.95313 v 1.17187 q 0,0.39063 -7.03125,5.07813 -7.61719,8.59375 -10.9375,8.59375 -1.5625,0 -2.73438,-4.6875 l 0.39063,-1.95313 q -0.39063,-2.14843 -0.39063,-3.51562 0.78125,-1.75781 1.5625,-1.95313 h 1.17188 q 3.125,0 3.125,0.19532 v 1.17187 h 0.39062 q 9.66797,-6.05469 11.71875,-6.05469 z"
         style="font-family:'Arty Signature';-inkscape-font-specification:'Arty Signature'"
         id="path1884" />
      <path
         d="m 252.14258,250.23828 h -3.22266 q -2.05078,0 -5.76172,-3.22266 h -0.58593 q -4.58985,4.78516 -7.32422,4.78516 h -1.07422 l -4.19922,-3.71094 q 0,-7.32422 6.83594,-11.03515 h 2.14843 q 9.96094,0.68359 9.96094,4.19922 v 2.14843 h 0.58594 q 0.87891,0 2.63672,6.83594 z"
         style="font-family:'Arty Signature';-inkscape-font-specification:'Arty Signature'"
         id="path1886" />
      <path
         d="m 271.77148,203.07031 q 2.14844,0 2.73438,1.5625 -0.39063,2.73438 -11.71875,27.34375 -2.34375,3.51563 -4.6875,10.54688 l 0.78125,0.39062 2.73437,-0.39062 q 2.44141,0 3.51563,1.95312 v 0.78125 q 0,0.97656 -9.375,3.125 -2.83203,14.45313 -5.07813,14.45313 h -0.78125 q 0,-0.97657 -1.5625,-1.17188 v -1.17187 q 0,-2.05078 3.51563,-14.0625 -0.78125,-1.26953 -0.78125,-1.95313 3.90625,-1.66015 3.90625,-6.64062 10.25391,-21.38672 15.23437,-34.76563 z"
         style="font-family:'Arty Signature';-inkscape-font-specification:'Arty Signature'"
         id="path1888" />
      <path
         d="m 432.2207,170.64844 q 2.2461,0.78125 3.32032,2.73437 v 0.58594 q -0.48829,0.87891 -26.07422,11.03516 -14.0625,7.32421 -34.86328,23.33984 l -42.1875,38.76953 h -1.07422 v 2.24609 q 2.92968,0 11.62109,18.84766 4.98047,10.15625 24.41406,39.45313 0,0.58593 0.48828,1.5625 -0.48828,1.07421 -0.48828,1.66015 h -2.83203 q 0,-1.26953 -14.35547,-19.43359 l -19.43359,-32.61719 q -3.90625,-3.80859 -3.90625,-4.98047 -2.53906,0 -11.03516,10.44922 -1.07422,0 -8.88672,9.47266 -6.64062,3.80859 -6.64062,7.22656 -2.34375,37.10937 -6.15234,37.10937 l -1.07422,0.58594 q -3.32032,-1.46484 -3.32032,-3.90625 1.66016,-7.22656 6.05469,-47.16797 7.22656,-36.62109 16.69922,-59.86328 9.96094,-25.48828 12.20703,-25.48828 h 1.07422 q 0.48828,0 3.32031,2.24609 -13.86718,27.73438 -21.09375,57.03125 -3.90625,14.0625 -5.46875,26.07422 h 1.07422 q 45.9961,-46.67968 80.3711,-73.14453 24.90234,-16.5039 42.67578,-22.16797 0,-0.68359 5.5664,-1.66015 z"
         style="font-family:'Arty Signature';-inkscape-font-specification:'Arty Signature'"
         id="path1890" />
      <path
         d="m 362.88477,258.34375 q 0.68359,-5.56641 3.51562,-11.32813 l -0.39062,-0.78125 q 0.29296,-1.5625 0.78125,-1.5625 l -0.39063,-0.78125 q 0,-0.68359 4.6875,-1.5625 1.07422,-1.95312 3.51563,-1.95312 4.6875,3.90625 8.20312,3.90625 l -1.95312,5.07812 -2.73438,-1.5625 q 0,5.46875 -6.64062,8.59375 -2.53907,-0.78125 -3.90625,-1.95312 0,1.07422 -4.6875,3.90625 z"
         style="font-family:'Arty Signature';-inkscape-font-specification:'Arty Signature'"
         id="path1892" />
      <path
         d="m 392.37695,236.95703 h 1.5625 q 4.00391,0 6.64063,8.20313 0,5.46875 -5.07813,7.8125 -0.78125,-0.97657 -0.78125,-1.95313 -3.80859,1.17188 -4.29687,1.17188 -1.95313,-0.6836 -1.95313,-1.95313 h -0.39062 q -9.375,11.71875 -18.35938,34.76563 -2.73437,8.30078 -2.73437,9.76562 v 0.78125 l 0.39062,1.95313 q -1.46484,1.17187 -2.34375,1.17187 -2.73437,-0.97656 -2.73437,-2.34375 0,-7.32422 15.23437,-37.5 10.54688,-15.82031 10.54688,-16.01562 2.73437,-5.17579 4.29687,-5.85938 z m -2.73437,11.71875 q 2.63672,-1.5625 4.6875,-1.5625 l 1.95312,0.39063 v -1.95313 q 0,-1.85547 -1.95312,-3.125 -4.6875,3.51563 -4.6875,6.25 z"
         style="font-family:'Arty Signature';-inkscape-font-specification:'Arty Signature'"
         id="path1894" />
      <path
         d="m 419.7207,203.07031 q 2.14844,0 2.73438,1.5625 -0.39063,2.73438 -11.71875,27.34375 -2.34375,3.51563 -4.6875,10.54688 l 0.78125,0.39062 2.73437,-0.39062 q 2.44141,0 3.51563,1.95312 v 0.78125 q 0,0.97656 -9.375,3.125 -2.83203,14.45313 -5.07813,14.45313 h -0.78125 q 0,-0.97657 -1.5625,-1.17188 v -1.17187 q 0,-2.05078 3.51563,-14.0625 -0.78125,-1.26953 -0.78125,-1.95313 3.90625,-1.66015 3.90625,-6.64062 10.2539,-21.38672 15.23437,-34.76563 z"
         style="font-family:'Arty Signature';-inkscape-font-specification:'Arty Signature'"
         id="path1896" />
      <path
         d="m 416.69336,239.20312 q 1.17187,0 2.34375,2.34375 0,0.97657 -0.78125,5.07813 h 0.39062 q 1.46485,0 5.07813,-6.25 0.68359,-0.39063 1.5625,-0.39063 h 0.39062 q 1.95313,0.78125 1.95313,2.73438 V 243.5 q -8.20313,10.54687 -10.9375,10.54687 -3.51563,-1.95312 -3.51563,-4.6875 v -1.5625 q 0,-1.95312 0.78125,-4.6875 l -0.39062,-2.34375 q 2.24609,-1.5625 3.125,-1.5625 z"
         style="font-family:'Arty Signature';-inkscape-font-specification:'Arty Signature'"
         id="path1898" />
      <path
         d="m 443.1582,237.93359 q 1.5625,0 2.73438,1.95313 v 1.17187 q 0,0.39063 -7.03125,5.07813 -7.61719,8.59375 -10.9375,8.59375 -1.5625,0 -2.73438,-4.6875 l 0.39063,-1.95313 q -0.39063,-2.14843 -0.39063,-3.51562 0.78125,-1.75781 1.5625,-1.95313 h 1.17188 q 3.125,0 3.125,0.19532 v 1.17187 h 0.39062 q 9.66797,-6.05469 11.71875,-6.05469 z"
         style="font-family:'Arty Signature';-inkscape-font-specification:'Arty Signature'"
         id="path1900" />
    </g>
  </g>
</svg>
